<?xml version="1.0" encoding="utf-8"?>
<!-- Generator: Adobe Illustrator 21.0.2, SVG Export Plug-In . SVG Version: 6.00 Build 0)  -->
<svg version="1.1" id="Capa_1" xmlns="http://www.w3.org/2000/svg" xmlns:xlink="http://www.w3.org/1999/xlink" x="0px" y="0px"
   viewBox="0 0 380.7 380.7" style="enable-background:new 0 0 380.7 380.7;" xml:space="preserve">
<style type="text/css">
  .st0{fill:#663366;}
  .st1{fill:#CC3366;}
  .st2{fill:none;}
  .st3{fill:#66CCCC;}
  .st4{fill:#339999;}
  .st5{fill:#CC9933;}
  .st6{fill:#FFFFFF;}
</style>
<g>
  <g>
  <path class="st0" d="M263.5,346.4h10.3h45.6c14.9,0,27-12.1,27-27v-258c0-14.9-12.1-27-27-27h-258c-14.9,0-27,12.1-27,27v258
  c0,14.9,12.1,27,27,27h50.3L263.5,346.4z"/>
  <path class="st1" d="M232.2,346.4l5.6-107.6c-13.1-2.9-24.3-11.2-31.3-21.7c-8.7-13,6.7-128.1,6.7-128.1h10v108h9.9V89h10.8v108
  h9.9V89H265v108h9.9V89h7.7c0,0,15.3,115.1,6.7,128.1c-6.9,10.4-18,18.7-30.9,21.6c-0.2,0.1-0.4,0.2-0.4,0.2l5.6,107.5
  L232.2,346.4z"/>
  <path class="st2" d="M143.7,346.4h66.3h10.3h5.5h6.2"/>
  <path class="st3" d="M111.6,346.4l6-115.9c0,0-9.4-3.1-11.5-4.1c-20-8.8-34.6-34.8-34.6-68.6c0-36.8,28.6-68.5,56.2-68.8
  c0,0,0,0,0.1,0c0,0,0,0,0,0c27.6,0.3,56.2,32,56.2,68.8c0,33.7-14.6,59.7-34.6,68.6c-0.2,0.1-11.6,4.2-11.6,4.2l6,115.8
  L111.6,346.4z"/>
  <path class="st4" d="M95,141.5c0.6-2.3,1.3-4.6,1.4-4.6c0.2-0.9-0.2-1.8-1.2-2.3c-0.9-0.5-2-0.2-2.5,0.5c0,0-1.1,1.7-2.7,4.3
  c-1.3,2.2-3.2,5.8-4.5,10.2c-1.1,3.9-2.5,9-3.1,14.8c-0.3,3-0.3,5.8-0.2,8.6c0.2,3.2,0.7,6,1.6,9.1c3.2,9,5.6,17.6,14.3,26.2
  c2.8,2.9,5.6,4.8,7.7,6.2l0.7,0.5c0.4,0.3,0.9,0.6,1.3,0.8c1.7,0.9,2.9,1.2,3.1,1.3c0.9,0.2,1.7-0.2,2.1-0.9
  c0.3-0.7,0.1-1.6-0.6-2.2c0,0-1-0.9-2.3-2.5c-0.9-1-1.8-2.4-2.9-4c-0.8-1.1-1.7-2.4-2.6-3.7c-4.3-6.5-6.7-15.6-10.1-24.9
  c-0.7-2-1.2-4.6-1.4-6.9c-0.3-2.6-0.4-5-0.4-7.3c-0.1-5.3,0.2-9.9,0.6-13.6C93.8,146.9,94.2,143.7,95,141.5z"/>
  <path class="st5" d="M341.3,0H39.5C17.7,0,0,17.7,0,39.5v301.8c0,21.8,17.7,39.5,39.5,39.5h301.8c21.8,0,39.5-17.7,39.5-39.5V39.5
  C380.7,17.7,363,0,341.3,0z M364.9,341.3c0,13.1-10.6,23.7-23.7,23.7H39.5c-13.1,0-23.7-10.6-23.7-23.7V39.5
  c0-13.1,10.6-23.7,23.7-23.7h301.8c13.1,0,23.7,10.6,23.7,23.7L364.9,341.3L364.9,341.3z"/>
  </g>
</g>
<path class="st6" d="M364.9,341.3V39.5c0-13.1-10.6-23.7-23.7-23.7H39.5c-13,0-23.7,10.6-23.7,23.7v301.8c0,13,10.6,23.7,23.7,23.7
  h301.8C354.3,364.9,364.9,354.3,364.9,341.3L364.9,341.3z M346.4,319.4c0,14.9-12.1,27-27,27h-55.9l-31.3,0h-44.6l-75.9,0H61.3
  c-14.9,0-27-12.1-27-27v-258c0-14.9,12.1-27,27-27h258c14.9,0,27,12.1,27,27V319.4z"/>
</svg>
